<?xml version="1.0" encoding="UTF-8" standalone="no"?>
<!-- Created with Inkscape (http://www.inkscape.org/) -->

<svg
   width="689.17627"
   height="84.897133"
   viewBox="0 0 182.34456 22.462367"
   version="1.1"
   id="svg5"
   xmlns="http://www.w3.org/2000/svg"
   xmlns:svg="http://www.w3.org/2000/svg">
  <defs
     id="defs2" />
  <g
     id="layer1"
     transform="translate(20.2264,-51.187744)">
    <path
       id="path61164"
       style="fill:#000000;stroke-width:0.321153"
       d="m -10.912978,73.171204 c -0.21989,-0.26497 -0.707271,-0.4831 -1.08307,-0.48475 -2.028294,-0.008 -6.178323,-3.66165 -7.050652,-6.20573 -1.151556,-3.35843 -1.224336,-4.27739 -0.513122,-6.47884 0.36799,-1.13906 1.040165,-2.6162 1.49372,-3.28254 0.453555,-0.66635 0.839497,-1.57282 0.857648,-2.01442 0.02736,-0.66562 0.197723,-0.80648 0.99646,-0.82394 0.529901,-0.0121 1.541532,-0.31909 2.248067,-0.68339 0.706535,-0.36428 1.76406,-0.76587 2.350056,-0.89239 0.585995,-0.12654 1.143402,-0.43322 1.238681,-0.68151 0.224766,-0.58573 1.2036593,-0.58015 1.6931463,0.0102 0.210468,0.2536 0.821308,0.55743 1.357424,0.67518 1.919098,0.4215 3.727966,1.44556 5.009846,2.83624 1.492036,1.61867 2.102724,2.69242 2.61563,4.59895 0.230464,0.85668 0.592866,1.41881 0.997463,1.54722 1.548397,0.49145 1.428686,2.44149 -0.187608,3.05601 -0.430844,0.16379 -0.783354,0.50767 -0.783354,0.76417 0,0.25648 -0.480419,1.38803 -1.067599,2.51454 -0.824063,1.58098 -0.990544,2.17037 -0.729811,2.58372 0.482626,0.76512 -0.25117,1.47861 -1.021167,0.99292 -0.431117,-0.27194 -0.9418,-0.15476 -2.319516,0.53224 -0.971677,0.48454 -2.30863,0.97643 -2.971006,1.09309 -0.662377,0.11664 -1.204321,0.35008 -1.204321,0.5187 0,0.48942 -1.4876023,0.35422 -1.9269153,-0.17512 z m 0.514954,-1.20232 c 0.194908,-0.12244 0.7961043,-0.0559 1.3359883,0.1479 1.13101,0.42691 2.738166,0.056 4.527008,-1.0448 l 1.078934,-0.66395 -1.227127,-0.62562 c -0.674921,-0.34408 -1.521738,-0.62365 -1.881817,-0.62124 -0.978192,0.006 -2.111378,0.35949 -1.956876,0.60948 0.07468,0.12077 -0.0019,0.42957 -0.170291,0.68608 -0.261809,0.39895 -0.368348,0.38513 -0.736807,-0.0957 -0.6112763,-0.79757 -0.9440663,-0.70198 -1.4375713,0.41293 -0.467932,1.05714 -1.011288,1.07096 -2.59951,0.0662 l -0.786774,-0.49778 0.706486,-0.26133 c 0.934197,-0.34558 0.894833,-0.4893 -0.303784,-1.10914 -0.841732,-0.43527 -0.980316,-0.44436 -0.830709,-0.0546 0.143173,0.37312 -0.02632,0.42589 -0.836355,0.26046 -0.791616,-0.16168 -1.025079,-0.3819 -1.05741,-0.9975 -0.02282,-0.43449 -0.564765,-1.6486 -1.204321,-2.69801 -1.512849,-2.48236 -1.46898,-2.74533 0.162681,-0.97519 0.729032,0.7909 1.518799,1.43802 1.755039,1.43802 0.6429,0 1.240041,-1.26747 0.803031,-1.70447 -0.510465,-0.51047 -0.42972,-1.52996 0.174008,-2.19708 0.489009,-0.54036 0.46155,-0.70129 -0.40144,-2.35288 -0.509495,-0.97507 -1.002432,-1.7732 -1.095417,-1.77362 -0.09299,-4.3e-4 -0.111573,-0.61496 -0.04129,-1.36566 l 0.127768,-1.3649 -0.673194,0.60446 c -1.370081,1.23019 -2.078048,3.32663 -2.173066,6.43495 -0.07573,2.47738 0.02148,3.15799 0.645926,4.52207 1.066706,2.33021 2.21255,3.52773 4.441077,4.64132 1.864686,0.93181 2.846974,1.08748 3.655819,0.57942 z m 7.9604843,-2.94715 c 0.107312,-0.42754 0.109096,-1.00149 0.0039,-1.27541 -0.167886,-0.4375 -0.343538,-0.42028 -1.4449,0.14159 -0.68958,0.35179 -1.25378,0.71592 -1.25378,0.80917 0,0.16673 1.8908,1.06487 2.293539,1.08943 0.113321,0.007 0.293847,-0.33723 0.401154,-0.76478 z m -10.2325143,-0.83709 c -2.56394,-1.09343 -2.417907,-1.05545 -2.417907,-0.62889 0,0.61743 2.079545,1.59867 3.372101,1.59115 l 1.284611,-0.007 -2.238805,-0.95477 z m 4.9225993,0.36506 c 0.303748,-0.19246 0.328068,-0.34262 0.0803,-0.49575 -0.407358,-0.25176 -0.997745,0.032 -0.997745,0.47948 0,0.37343 0.34417,0.37954 0.917458,0.0163 z m -1.238608,-1.10368 c 0,-0.22197 -0.649735,-1.04124 -1.4438563,-1.82061 -1.125759,-1.10484 -1.529055,-1.33184 -1.830569,-1.03031 -0.212693,0.21268 -0.714022,0.3867 -1.114066,0.3867 -0.834782,0 -1.634261,1.17106 -1.138164,1.66716 0.172477,0.17248 1.233625,0.64758 2.358107,1.05577 2.062227,0.74859 3.1685483,0.65825 3.1685483,-0.25871 z m 8.341201,-1.06933 c 0.37132,-0.99244 0.630055,-1.93966 0.574968,-2.10491 -0.195513,-0.58655 -1.850816,2.38903 -1.850816,3.32703 0,1.3491 0.489131,0.88057 1.275848,-1.22212 z m -3.834391,1.00835 c 0.877298,-0.44456 1.595086,-1.01877 1.595086,-1.27603 0,-0.59933 -1.342242,-3.37528 -1.632035,-3.37528 -0.257,0 -2.8641,3.93468 -2.8641,4.32255 0,0.224 0.940215,1.09597 1.214999,1.12684 0.05004,0.006 0.808754,-0.35352 1.68605,-0.79808 z m -0.813557,-1.76093 c -0.10917,-0.17663 -0.04544,-0.32115 0.141623,-0.32115 0.187058,0 0.340105,0.14452 0.340105,0.32115 0,0.17664 -0.06373,0.32115 -0.141623,0.32115 -0.0779,0 -0.23094,-0.14451 -0.340105,-0.32115 z m -11.2166803,0.71495 c -0.554873,-0.52997 -0.563486,-0.52137 -0.195729,0.19573 0.211579,0.41254 0.472766,0.66201 0.580416,0.55436 0.107652,-0.10766 -0.06546,-0.44518 -0.384687,-0.75009 z m 10.0597163,-2.29021 c 0.724648,-1.13136 1.317541,-2.17657 1.317541,-2.32273 0,-0.14614 -0.625561,-0.91859 -1.390136,-1.71654 -1.896772,-1.97958 -2.658737,-1.94394 -4.3692433,0.20436 -0.947874,1.19049 -1.264068,1.8442 -1.126203,2.32836 0.265842,0.93362 3.6478563,4.20393 3.9811933,3.84971 0.148121,-0.15739 0.862202,-1.21183 1.586848,-2.34316 z m -2.991378,-0.95086 c -0.138344,-0.22383 -0.164803,-0.49372 -0.0588,-0.59972 0.287419,-0.28742 0.600802,0.13531 0.445564,0.60102 -0.108782,0.32634 -0.184428,0.32609 -0.386765,-8.8e-4 z m 8.315076,1.57862 c 0.780165,-1.50868 0.614928,-2.40893 -0.645232,-3.51537 -1.372777,-1.2053 -1.549382,-1.22209 -2.01883,-0.19177 -0.313326,0.68768 -0.22425,1.08541 0.611367,2.7298 0.537972,1.05866 1.109664,1.92484 1.270425,1.92484 0.160762,0 0.512784,-0.42638 0.78227,-0.9475 z m -10.3179283,-4.88478 c 0.896017,-1.17556 1.138591,-1.71743 0.883169,-1.97285 -0.193679,-0.19369 -0.352143,-0.67306 -0.352143,-1.06528 0,-0.52995 -0.245478,-0.76705 -0.955623,-0.92302 -0.525591,-0.11544 -1.103666,-0.11835 -1.284609,-0.006 -0.180943,0.11179 -0.328989,0.0503 -0.328989,-0.13677 0,-0.18706 -0.578074,-0.34011 -1.284609,-0.34011 -1.408358,0 -1.599882,0.41356 -0.96493,2.08362 0.484538,1.27443 2.356224,4.02073 2.726121,3.99999 0.179465,-0.0102 0.88219,-0.74761 1.561613,-1.63901 z m 7.1907343,-0.33217 c -0.226138,-0.56822 -3.042007,-2.05645 -3.335563,-1.76288 -0.12896,0.12895 0.478747,0.95858 1.350458,1.8436 1.454073,1.47627 1.608341,1.55667 1.86843,0.97379 0.155923,-0.34944 0.208427,-0.82397 0.116671,-1.05451 z m 3.960205,-0.15444 c -0.185284,-0.67551 -0.63828,-1.66175 -1.006657,-2.19165 -0.630564,-0.90705 -0.657972,-0.91646 -0.468175,-0.16058 0.185399,0.73837 0.164687,0.75708 -0.257778,0.2328 -0.42863,-0.53194 -0.470389,-0.51248 -0.623923,0.29067 -0.195289,1.0216 0.686222,2.62998 1.758229,3.20801 0.907292,0.48921 1.031971,0.20179 0.598304,-1.37925 z m -1.106241,-0.5983 c -0.309906,-0.80761 -0.218484,-1.01599 0.160105,-0.36495 0.187453,0.32237 0.273171,0.65376 0.190484,0.73644 -0.08269,0.0826 -0.240452,-0.0845 -0.350589,-0.37149 z m -2.220336,-0.79092 c -0.09244,-0.3535 -0.04357,-0.5658 0.108587,-0.47176 0.152168,0.0941 0.237074,-0.51051 0.188679,-1.34347 -0.125421,-2.15875 -0.75413,-2.45242 -2.516768,-1.17557 -0.75932,0.55005 -1.38058,1.1668 -1.38058,1.37055 0,0.33776 2.833605,2.14723 3.489845,2.22853 0.153078,0.0189 0.202684,-0.25475 0.110237,-0.60828 z m -4.803432,-2.61122 c 0.476161,0.25483 0.778317,0.16822 1.389187,-0.39821 0.429369,-0.39812 1.069022,-0.88525 1.42145,-1.08249 0.606787,-0.33958 0.589671,-0.37819 -0.322679,-0.72802 -0.529901,-0.2032 -1.397012,-0.36725 -1.926915,-0.36458 -1.597446,0.008 -2.1995543,0.002 -3.2887743,-0.0328 -1.073139,-0.0343 -4.258308,1.26717 -4.258308,1.74001 0,0.14644 0.397426,0.27789 0.883169,0.29209 0.485742,0.0143 1.533503,0.20126 2.328354,0.41564 0.913515,0.24639 1.761724,0.28732 2.3055943,0.11131 0.526181,-0.17034 1.096785,-0.15203 1.468922,0.0471 z m -3.9350913,-0.92101 c -0.109169,-0.17663 -0.04543,-0.32115 0.141622,-0.32115 0.187059,0 0.340107,0.14452 0.340107,0.32115 0,0.17663 -0.06373,0.32115 -0.141624,0.32115 -0.07789,0 -0.230939,-0.14452 -0.340105,-0.32115 z m 78.901551,17.39332 c -2.054223,-0.733 -3.679459,-2.21859 -4.798999,-4.38664 -0.683369,-1.32341 -0.831441,-2.05753 -0.842062,-4.17499 -0.02051,-4.09756 1.461732,-6.71594 4.779546,-8.44269 1.316198,-0.68502 2.040076,-0.83495 4.014396,-0.83143 1.5124,0.002 2.85695,0.19928 3.61345,0.52834 1.15531,0.50249 1.18909,0.56098 0.82218,1.42338 -0.59036,1.38756 -0.75734,1.47288 -1.81355,0.92669 -0.54144,-0.27998 -1.71994,-0.50906 -2.61892,-0.50906 -2.2868,0 -3.935332,0.91762 -5.047445,2.80954 -0.766554,1.30405 -0.897025,1.87636 -0.897025,3.93466 0,1.97575 0.144297,2.66432 0.802883,3.83128 1.457995,2.58344 4.712517,3.59213 7.714477,2.39099 0.71743,-0.28707 1.3692,-0.45717 1.44834,-0.37803 0.0791,0.0792 0.2357,0.6029 0.34789,1.16389 0.19005,0.9502 0.11895,1.05553 -1.04002,1.53975 -1.94243,0.81161 -4.50606,0.88051 -6.485141,0.17432 z m 40.507804,0.23736 c -0.56255,-0.16278 -1.46252,-0.73567 -1.99995,-1.2731 -1.61263,-1.61264 -1.95512,-3.44754 -1.95512,-10.47455 v -6.20418 h 1.2846 1.28462 l 0.002,6.02161 c 8.8e-4,3.31189 0.15438,6.57107 0.34086,7.24263 0.58038,2.08999 3.03701,3.06608 5.07037,2.01459 1.56601,-0.80983 1.76189,-1.71143 1.90639,-8.77549 l 0.13304,-6.50334 h 1.27925 1.27922 l -0.11142,6.82449 c -0.10184,6.239 -0.17044,6.9347 -0.79923,8.10909 -0.92017,1.71866 -1.93231,2.5965 -3.48009,3.01839 -1.50655,0.41064 -2.81477,0.41058 -4.23432,-1.4e-4 z m 28.96305,0.0531 c -2.88757,-0.49523 -3.72568,-1.4637 -2.59134,-2.99442 0.39832,-0.53749 0.48817,-0.53389 1.82628,0.0732 2.37395,1.07711 5.53975,0.6267 6.35938,-0.9048 0.61434,-1.14788 0.41808,-2.89678 -0.41897,-3.73383 -0.90731,-0.90734 -3.16056,-1.58289 -4.43164,-1.32867 -0.49736,0.0994 -0.90088,0.0762 -0.89672,-0.0519 0.004,-0.12808 0.93928,-1.67803 2.07806,-3.44436 l 2.07048,-3.21154 -3.36266,-0.0912 -3.36266,-0.0912 v -1.12325 c 0,-0.72173 0.17922,-1.19201 0.50136,-1.31563 0.27574,-0.10584 2.80573,-0.0651 5.6222,0.0903 l 5.12084,0.28277 -2.27049,3.28952 c -1.24874,1.80922 -2.19062,3.41867 -2.09306,3.57654 0.0976,0.15788 0.6595,0.37748 1.24873,0.48802 1.83647,0.34453 3.43694,2.48841 3.42485,4.58773 -0.0168,2.91041 -2.10586,5.30836 -5.1232,5.88059 -1.83716,0.34841 -1.79948,0.34819 -3.70144,0.022 z m -152.386811,-0.34155 c 0,-0.17663 0.225308,-0.32115 0.500683,-0.32115 0.275374,0 0.411364,0.14452 0.302198,0.32115 -0.10917,0.17664 -0.334472,0.32115 -0.500682,0.32115 -0.166209,0 -0.302199,-0.14451 -0.302199,-0.32115 z m 22.2268653,0.0803 c 0.300087,-0.59799 2.372974,-4.93453 5.1766057,-10.82961 1.677674,-3.52757 3.1951,-6.46203 3.372065,-6.52101 0.176961,-0.0591 0.426783,0.22587 0.555159,0.63301 0.128379,0.40715 1.947127,4.26723 4.04166,8.57796 2.094534,4.31072 3.808245,7.95981 3.808245,8.1091 0,0.14927 -0.63355,0.27142 -1.407888,0.27142 -1.40553,0 -1.409086,-0.002 -2.124789,-1.76634 l -0.716906,-1.76634 H 14.430173 10.3019 l -0.8356127,1.76634 c -0.830936,1.75646 -0.843716,1.76634 -2.284237,1.76634 -0.796745,0 -1.394234,-0.1084 -1.327756,-0.24087 z m 11.4941427,-5.65137 c 0,-0.0713 -0.378703,-0.9787 -0.841561,-2.01633 -0.462858,-1.03762 -1.124894,-2.53692 -1.471193,-3.33177 l -0.629636,-1.44519 -0.503341,0.95448 c -0.626965,1.18892 -2.335013,5.31183 -2.335013,5.6363 0,0.13198 1.300667,0.26073 2.890372,0.2861 1.589704,0.0253 2.890372,-0.0122 2.890372,-0.0837 z m 7.065353,-3.10003 v -8.99222 l 2.649509,0.007 c 4.496946,0.0133 6.744043,0.86385 7.829848,2.96355 1.125896,2.17726 0.323252,5.80545 -1.525961,6.89781 -0.508521,0.30039 -0.924583,0.68655 -0.924583,0.85814 0,0.17159 0.867111,1.79843 1.926914,3.61522 1.059804,1.81678 1.926915,3.38736 1.926915,3.4902 0,0.10281 -0.675079,0.14291 -1.500173,0.089 l -1.500172,-0.0978 -1.738565,-3.29181 -1.738565,-3.29182 H 28.400985 26.98301 v 3.37211 3.3721 H 25.698401 24.41379 Z m 6.967574,-0.62815 c 1.361317,-0.83005 1.98333,-2.73834 1.372917,-4.21202 -0.518844,-1.25259 -1.94049,-1.90404 -4.155193,-1.90404 H 26.98301 v 3.37211 3.3721 l 1.686051,-8.7e-4 c 1.104193,-7.7e-4 2.040211,-0.21716 2.712303,-0.62696 z m 19.68808,0.63746 v -9.00153 h 3.853828 3.853827 v 1.11052 1.11053 l -2.488931,0.0938 -2.488928,0.0939 -0.09379,2.48893 -0.0938,2.48893 h 2.100996 2.100999 v 1.10872 1.10869 l -2.007208,0.0957 -2.007193,0.0957 -0.09279,2.8101 -0.09279,2.81007 1.216814,0.0285 c 0.669252,0.0157 1.867156,0.0128 2.662004,-0.006 1.82975,-0.0443 2.327227,0.28642 2.193503,1.4579 l -0.105966,0.92861 -4.255256,0.0896 -4.255264,0.0896 z m 26.227443,8.76886 c -0.2716,-0.2716 -0.27667,-13.83106 -0.006,-16.0844 l 0.20251,-1.68604 h 1.23987 1.23988 v 3.69325 3.69325 h 3.05095 3.050955 v -3.69325 -3.69325 h 1.47324 1.47326 l -0.10839,9.0051 -0.10839,9.00511 -1.28462,-0.0931 -1.28461,-0.0931 -0.0899,-4.09468 -0.0899,-4.0947 h -3.041355 -3.04135 v 4.17498 4.17497 h -1.23108 c -0.6771,0 -1.32743,-0.0964 -1.44518,-0.21408 z m 15.201225,-8.77813 v -8.99223 h 4.01439 4.014408 v 1.12404 1.12403 h -2.729808 -2.72979 v 2.685 2.68501 l 1.89876,-0.0354 c 1.04432,-0.0195 1.99021,0.0554 2.10197,0.16633 0.11181,0.11094 0.23281,0.6168 0.26902,1.12403 l 0.0657,0.92221 -2.16779,0.095 -2.16777,0.0949 v 3.99974 3.99974 h -1.28461 -1.2846 z m 25.146038,8.75827 c 2.21868,-3.85526 8.57494,-15.22898 8.57494,-15.34376 0,-0.0872 -1.66196,-0.15872 -3.69324,-0.15872 h -3.69326 v -1.12404 -1.12402 h 5.78074 c 3.1794,0 5.78074,0.057 5.78074,0.12665 0,0.0698 -1.87992,3.48877 -4.17761,7.59798 -2.2977,4.10921 -4.0985,7.55042 -4.00182,7.64711 0.0968,0.0968 1.98264,0.23596 4.19098,0.30948 l 4.01518,0.13367 -0.11445,1.00453 -0.11447,1.00454 -6.34512,0.0871 c -3.48982,0.0479 -6.28096,-0.0244 -6.20255,-0.16057 z m 30.73446,-8.79786 v -9.03185 l 3.79856,0.13543 c 3.35538,0.11969 4.01382,0.24074 5.64356,1.0381 2.26115,1.10627 3.5488,2.77176 4.06485,5.25755 0.81593,3.93031 -0.56864,8.0764 -3.31237,9.91884 -1.84725,1.24044 -3.91337,1.71379 -7.48061,1.71379 h -2.71399 z m 7.4921,6.02457 c 2.93962,-1.22825 4.37349,-5.98078 2.82309,-9.35709 -1.048,-2.28221 -2.94237,-3.33193 -6.05992,-3.358 l -1.68604,-0.014 v 6.58364 6.58361 h 1.93723 c 1.06547,0 2.40902,-0.19713 2.98564,-0.43805 z M 41.756023,64.018414 v -7.70766 h -2.248067 -2.248067 v -1.10093 c 0,-1.08832 0.0193,-1.10323 1.68605,-1.30312 0.927329,-0.11118 3.564792,-0.15775 5.861032,-0.10342 l 4.174981,0.0988 v 1.12404 1.12403 l -2.328354,0.0944 -2.328355,0.0944 v 7.69359 7.69358 h -1.28461 -1.28461 z m -61.982423,5.13842 c 0,-0.17662 0.153047,-0.32114 0.340106,-0.32114 0.187058,0 0.250789,0.14452 0.141623,0.32114 -0.10917,0.17665 -0.262214,0.32117 -0.340106,0.32117 -0.07789,0 -0.141623,-0.14452 -0.141623,-0.32117 z m 0.642305,-13.16723 c 0,-0.17663 0.153048,-0.32117 0.340106,-0.32117 0.187058,0 0.250789,0.14454 0.141623,0.32117 -0.10917,0.17663 -0.262213,0.32115 -0.340107,0.32115 -0.07789,0 -0.141622,-0.14452 -0.141622,-0.32115 z m 18.9479953,-1.79311 c 0,-0.56713 0.691364,-0.46837 0.88986,0.12713 0.06991,0.20975 -0.101691,0.38136 -0.381369,0.38136 -0.27967,0 -0.508491,-0.22881 -0.508491,-0.50849 z m -2.890373,-1.09726 c 0,-0.17663 0.153049,-0.32117 0.340107,-0.32117 0.187059,0 0.250788,0.14454 0.141622,0.32117 -0.10917,0.17663 -0.262213,0.32115 -0.340105,0.32115 -0.0779,0 -0.141624,-0.14452 -0.141624,-0.32115 z" />
  </g>
</svg>
