<?xml version="1.0" encoding="UTF-8" standalone="no"?>
<!-- Created with Inkscape (http://www.inkscape.org/) -->

<svg
   width="100"
   height="100"
   viewBox="0 0 26.458334 26.458334"
   version="1.1"
   id="svg5"
   xmlns="http://www.w3.org/2000/svg"
   xmlns:svg="http://www.w3.org/2000/svg">
  <defs
     id="defs2" />
  <g
     id="layer1"
     transform="translate(20.2264,-51.187744)">
    <path
       id="path61164"
       style="fill:#000000;stroke-width:0.37373"
       d="m -9.1525692,76.973121 c -0.2553938,-0.308948 -0.8214674,-0.563283 -1.2579438,-0.565206 -2.355786,-0.0093 -7.175883,-4.269393 -8.189059,-7.235726 -1.337488,-3.915846 -1.422019,-4.98733 -0.595972,-7.554165 0.427406,-1.328116 1.208111,-3.050425 1.734898,-3.82736 0.526787,-0.776948 0.975044,-1.833869 0.996125,-2.348764 0.03178,-0.776097 0.229648,-0.940335 1.15735,-0.960694 0.61546,-0.01411 1.790429,-0.37205 2.611042,-0.796815 0.820614,-0.424742 2.048888,-0.892985 2.7294994,-1.040505 0.6806108,-0.147542 1.3280174,-0.505123 1.4386802,-0.794623 0.261057,-0.682946 1.3980036,-0.676441 1.9665238,0.01189 0.2444505,0.295691 0.9539174,0.64995 1.5765953,0.787243 2.228958,0.491458 4.32988792,1.685486 5.81874182,3.306985 1.73294198,1.887329 2.44223238,3.139294 3.03795278,5.362261 0.267675,0.998867 0.6885909,1.654296 1.1585146,1.80402 1.798403,0.573018 1.6593634,2.846715 -0.2178994,3.56323 -0.5004086,0.190975 -0.9098353,0.591932 -0.9098353,0.891004 0,0.299049 -0.557988,1.618408 -1.2399748,2.931891 -0.9571172,1.843383 -1.1504784,2.530597 -0.8476472,3.012553 0.5605514,0.892111 -0.2917242,1.724022 -1.18604587,1.15772 -0.50072567,-0.317076 -1.09386416,-0.180447 -2.69402783,0.620579 -1.1285651,0.564961 -2.6813842,1.138492 -3.4507082,1.274515 -0.7693252,0.135999 -1.3987722,0.408184 -1.3987722,0.604791 0,0.570652 -1.7277923,0.413012 -2.2380373,-0.204185 z m 0.598099,-1.401875 c 0.2263781,-0.142762 0.9246443,-0.06517 1.5516986,0.172448 1.3136243,0.497766 3.1802737,0.06529 5.2579443,-1.218211 l 1.25313991,-0.774149 -1.42526041,-0.729457 c -0.7838945,-0.401188 -1.7674397,-0.72716 -2.1856574,-0.724351 -1.1361321,0.007 -2.4522837,0.419157 -2.2728356,0.710638 0.086737,0.140816 -0.00221,0.500869 -0.1977863,0.799954 -0.3040811,0.465165 -0.427822,0.449051 -0.8557729,-0.111585 -0.7099737,-0.929947 -1.0964963,-0.818491 -1.6696832,0.481466 -0.5434849,1.232599 -1.1745718,1.248713 -3.0192298,0.07719 l -0.913808,-0.580399 0.820556,-0.304704 c 1.085033,-0.402938 1.039314,-0.570512 -0.352833,-1.29323 -0.977639,-0.507514 -1.138599,-0.518113 -0.964836,-0.06366 0.166289,0.435049 -0.03057,0.496577 -0.971395,0.303689 -0.919431,-0.188515 -1.190589,-0.445286 -1.22814,-1.163059 -0.02651,-0.506605 -0.655953,-1.922227 -1.398772,-3.145812 -1.757116,-2.89437 -1.706163,-3.200987 0.188947,-1.137048 0.846743,0.92217 1.764026,1.676695 2.03841,1.676695 0.746703,0 1.44026,-1.477838 0.932689,-1.987369 -0.592884,-0.595195 -0.499102,-1.783895 0.202104,-2.561741 0.567965,-0.630045 0.536072,-0.817686 -0.466257,-2.743398 -0.591758,-1.136908 -1.164286,-2.067508 -1.272285,-2.067997 -0.108003,-5.02e-4 -0.129587,-0.717028 -0.04795,-1.592326 l 0.148397,-1.591439 -0.781888,0.704785 c -1.591296,1.434371 -2.413573,3.878767 -2.523932,7.502991 -0.08796,2.888564 0.02495,3.682138 0.750218,5.272621 1.238938,2.716966 2.569791,4.113245 5.158139,5.411663 2.16576,1.086467 3.3066497,1.267974 4.2460918,0.675589 z m 9.24579377,-3.436303 c 0.12463872,-0.498501 0.12671077,-1.167712 0.00453,-1.487096 -0.19499307,-0.510115 -0.39900606,-0.490037 -1.6781953,0.16509 -0.80092037,0.410179 -1.45621677,0.834745 -1.45621677,0.943472 0,0.194404 2.19609079,1.241611 2.66385652,1.270248 0.13161795,0.0081 0.34129189,-0.393201 0.46592481,-0.891714 z M -11.193345,71.158917 c -2.977917,-1.274913 -2.808305,-1.230629 -2.808305,-0.733271 0,0.719909 2.415311,1.86401 3.916564,1.855242 l 1.4920263,-0.0081 -2.6002853,-1.113238 z m 5.7174083,0.42565 c 0.3527915,-0.224402 0.3810382,-0.399485 0.093265,-0.578032 -0.4731305,-0.293545 -1.1588421,0.03732 -1.1588421,0.559063 0,0.435409 0.3997402,0.442533 1.0655919,0.019 z m -1.4385952,-1.286862 c 0,-0.258812 -0.7546419,-1.214061 -1.676983,-2.122787 -1.3075257,-1.288215 -1.7759381,-1.552891 -2.1261351,-1.201315 -0.247035,0.24798 -0.829309,0.450882 -1.293945,0.450882 -0.969566,0 -1.898131,1.365427 -1.321933,1.943867 0.200326,0.201108 1.432807,0.755063 2.73885,1.231002 2.3951969,0.872837 3.6801461,0.767503 3.6801461,-0.301649 z m 9.6879814,-1.246813 c 0.4312739,-1.15716 0.7317845,-2.261595 0.6678031,-2.454272 -0.2270808,-0.683903 -2.149651,2.785549 -2.149651,3.879234 0,1.573017 0.5681067,1.026722 1.4818479,-1.424962 z m -4.4534963,1.175711 c 1.01894752,-0.518346 1.85263043,-1.187861 1.85263043,-1.487819 0,-0.698804 -1.55896193,-3.935492 -1.89554523,-3.935492 -0.2984956,0 -3.3265412,4.587739 -3.3265412,5.039986 0,0.261178 1.0920233,1.277873 1.4111743,1.313866 0.05812,0.007 0.9393363,-0.412195 1.9582817,-0.930541 z m -0.944915,-2.0532 c -0.1267966,-0.205947 -0.052777,-0.374453 0.1644896,-0.374453 0.2172607,0 0.3950189,0.168506 0.3950189,0.374453 0,0.205958 -0.07402,0.374452 -0.1644896,0.374452 -0.090478,0 -0.2682279,-0.168494 -0.3950189,-0.374452 z m -13.0277392,0.833614 c -0.644464,-0.617932 -0.654467,-0.607905 -0.227331,0.228216 0.24574,0.481011 0.549099,0.771887 0.67413,0.64637 0.125033,-0.125529 -0.07603,-0.519068 -0.446799,-0.874586 z m 11.6839704,-2.670328 c 0.8416506,-1.319138 1.5302728,-2.537827 1.5302728,-2.708245 0,-0.170396 -0.7265649,-1.071053 -1.6145891,-2.001443 -2.203027,-2.308141 -3.0880198,-2.266585 -5.0747066,0.238278 -1.1009195,1.388082 -1.4681665,2.150292 -1.3080405,2.71481 0.308765,1.088578 4.236843,4.901677 4.624001,4.488666 0.1720369,-0.183513 1.0014143,-1.412963 1.8430624,-2.732066 z M -7.4431001,65.22801 c -0.1606812,-0.26098 -0.1914123,-0.575665 -0.068294,-0.699258 0.333826,-0.335125 0.6978082,0.157768 0.5175053,0.700773 -0.1263461,0.380505 -0.214206,0.380213 -0.4492126,-9.9e-4 z m 9.6576383,1.840632 c 0.9061313,-1.759083 0.714215,-2.808752 -0.749412,-4.098834 -1.59442724,-1.40535 -1.79954709,-1.424927 -2.34479273,-0.223599 -0.36391597,0.801817 -0.26045767,1.265561 0.71007904,3.182879 0.62483361,1.234371 1.28883169,2.244315 1.47554939,2.244315 0.1867189,0 0.5955787,-0.497149 0.9085763,-1.104761 z M -9.7693356,61.37311 c 1.0406892,-1.370673 1.3224296,-2.002481 1.0257668,-2.300294 -0.2249507,-0.225837 -0.4090004,-0.784771 -0.4090004,-1.242089 0,-0.617909 -0.2851132,-0.894362 -1.1099188,-1.076219 -0.610454,-0.1346 -1.281866,-0.137993 -1.492025,-0.007 -0.210158,0.130345 -0.382108,0.05865 -0.382108,-0.15947 0,-0.218107 -0.67141,-0.396559 -1.492023,-0.396559 -1.635753,0 -1.8582,0.4822 -1.120729,2.429448 0.562773,1.485954 2.736663,4.688071 3.166284,4.663888 0.208442,-0.01189 1.02463,-0.871694 1.8137534,-1.911044 z m 8.3517593,-0.387302 c -0.2626505,-0.66253 -3.5331732,-2.397769 -3.8741271,-2.055474 -0.149782,0.150353 0.5560461,1.117681 1.5685046,2.149592 1.6888494,1.721294 1.8680257,1.815038 2.1701089,1.135414 0.1810986,-0.407438 0.2420799,-0.960728 0.1355089,-1.229532 z M 3.1820482,60.805735 C 2.966848,60.018108 2.4407107,58.868176 2.0128551,58.250325 1.2804794,57.192728 1.2486461,57.181756 1.469088,58.063094 c 0.2153337,0.86092 0.1912776,0.882736 -0.2993992,0.271439 -0.49783713,-0.620229 -0.54633859,-0.59754 -0.72466238,0.338914 -0.22682059,1.191159 0.79702018,3.06649 2.04211478,3.740459 1.0537845,0.570407 1.1985943,0.235282 0.694907,-1.608171 z M 1.8971921,60.108132 C 1.5372483,59.166479 1.6434314,58.923513 2.0831479,59.68261 2.3008672,60.058485 2.4004254,60.444877 2.3043877,60.54128 2.2083467,60.63759 2.025112,60.44275 1.8971921,60.108132 Z m -2.57883415,-0.922193 c -0.10736548,-0.412172 -0.0506048,-0.659708 0.12611959,-0.55006 0.17673723,0.109718 0.27535225,-0.595242 0.21914334,-1.566452 -0.14567163,-2.517049 -0.87589278,-2.859461 -2.92312838,-1.370686 -0.8819207,0.641345 -1.6034901,1.360459 -1.6034901,1.598027 0,0.39382 3.2911222,2.503617 4.05331957,2.598411 0.17779414,0.02203 0.23540958,-0.297032 0.12803598,-0.70924 z M -6.2606419,56.141322 c 0.5530425,0.297125 0.9039849,0.19614 1.6134868,-0.464303 0.4986954,-0.464198 1.2416275,-1.032179 1.650959,-1.262157 0.7047596,-0.395941 0.68488,-0.44096 -0.3747792,-0.848853 -0.6154594,-0.236925 -1.6225752,-0.428204 -2.238037,-0.425091 -1.8553715,0.0093 -2.554697,0.0024 -3.8197838,-0.03825 -1.2464089,-0.03999 -4.9458599,1.477488 -4.9458599,2.028807 0,0.170746 0.461595,0.324013 1.025766,0.34057 0.564171,0.01668 1.781105,0.234665 2.704293,0.484626 1.061013,0.287285 2.0461749,0.335008 2.6778591,0.129785 0.6111388,-0.198612 1.2738733,-0.177264 1.706096,0.05491 z m -4.5704561,-1.073875 c -0.126796,-0.205946 -0.05277,-0.374453 0.164488,-0.374453 0.217262,0 0.395021,0.168507 0.395021,0.374453 0,0.205946 -0.07402,0.374453 -0.164491,0.374453 -0.09046,0 -0.268226,-0.168507 -0.395018,-0.374453 z m -4.662577,20.220607 c 0,-0.205946 0.261686,-0.374453 0.581524,-0.374453 0.319836,0 0.477783,0.168507 0.350991,0.374453 -0.126797,0.205958 -0.388476,0.374453 -0.581522,0.374453 -0.193046,0 -0.350993,-0.168495 -0.350993,-0.374453 z m -4.476073,-2.995587 c 0,-0.205935 0.177758,-0.374442 0.39502,-0.374442 0.21726,0 0.291282,0.168507 0.16449,0.374442 -0.126797,0.205968 -0.304552,0.374475 -0.39502,0.374475 -0.09046,0 -0.16449,-0.168507 -0.16449,-0.374475 z m 0.746013,-15.352662 c 0,-0.205947 0.177759,-0.374477 0.395019,-0.374477 0.217261,0 0.291282,0.16853 0.16449,0.374477 -0.126797,0.205946 -0.30455,0.374453 -0.395021,0.374453 -0.09046,0 -0.164488,-0.168507 -0.164488,-0.374453 z M 2.7836263,54.849083 c 0,-0.661259 0.8029924,-0.546107 1.0335378,0.148231 0.081198,0.244563 -0.1181101,0.444656 -0.4429453,0.444656 -0.3248258,0 -0.5905925,-0.266787 -0.5905925,-0.592887 z m -3.35705617,-1.279378 c 0,-0.205946 0.17776047,-0.374475 0.39502108,-0.374475 0.21726178,0 0.29128054,0.168529 0.16448847,0.374475 -0.12679672,0.205947 -0.30455023,0.374453 -0.39501877,0.374453 -0.0904778,0 -0.16449078,-0.168506 -0.16449078,-0.374453 z" />
  </g>
</svg>
